<svg xmlns="http://www.w3.org/2000/svg" width="180" height="72.445" viewBox="0 0 180 72.445">
  <g id="marvel-logo" transform="translate(215.19 86.608)">
    <rect id="Rectangle_1" data-name="Rectangle 1" width="180" height="72.445" transform="translate(-215.19 -86.608)" fill="#ed1d24"/>
    <g id="Group_1" data-name="Group 1" transform="translate(-209.406 -80.578)">
      <path id="Path_1" data-name="Path 1" d="M-37.986-43.457v-11h-30.77l-5.06,36.748-5.007-36.747h-11.1l1.243,9.805A17.549,17.549,0,0,0-104.5-54.457c-.066,0-11.111,0-11.111,0l-.043,53.562-8.088-53.562-14.532-.008-8.367,55.5,0-55.49h-13.908l-5.014,31.173-4.884-31.173h-13.913V5.879H-173.4V-23.2l4.984,29.081h5.825l4.914-29.081V5.878h21.121l1.282-9.284h8.5l1.277,9.284,20.736.013h.017V5.878h.026V-13.707l2.542-.368,5.263,19.966h10.726l0-.013h.032l-6.906-23.4c3.5-2.575,7.452-9.115,6.4-15.371v0c.013.085,6.519,38.815,6.519,38.815l12.756-.039,8.716-54.689V5.878h20.685V-4.973H-47.8V-18.811h9.819V-29.827H-47.8v-13.63Zm-96,30.483,3.008-25.794,3.123,25.794Zm31.847-11.91a5.94,5.94,0,0,1-2.578.61V-43.682c.015,0,.032,0,.053,0,.858,0,7.255.258,7.255,9.6,0,4.888-2.176,7.967-4.73,9.2m86.225,19.9V5.87H-36.089V-54.465h10.865V-4.982h9.314Z" transform="translate(184.355 54.465)" fill="#fff"/>
    </g>
  </g>
</svg>
